<svg id="mermaid-1618061284838" width="100%" xmlns="http://www.w3.org/2000/svg" xmlns:xlink="http://www.w3.org/1999/xlink" height="689.65625" style="max-width: 562.4296875px;" viewBox="-20 -20 562.4296875 689.65625"><style>#mermaid-1618061284838{font-family:"trebuchet ms",verdana,arial,sans-serif;font-size:16px;fill:#333;}#mermaid-1618061284838 .error-icon{fill:#552222;}#mermaid-1618061284838 .error-text{fill:#552222;stroke:#552222;}#mermaid-1618061284838 .edge-thickness-normal{stroke-width:2px;}#mermaid-1618061284838 .edge-thickness-thick{stroke-width:3.5px;}#mermaid-1618061284838 .edge-pattern-solid{stroke-dasharray:0;}#mermaid-1618061284838 .edge-pattern-dashed{stroke-dasharray:3;}#mermaid-1618061284838 .edge-pattern-dotted{stroke-dasharray:2;}#mermaid-1618061284838 .marker{fill:#333333;stroke:#333333;}#mermaid-1618061284838 .marker.cross{stroke:#333333;}#mermaid-1618061284838 svg{font-family:"trebuchet ms",verdana,arial,sans-serif;font-size:16px;}#mermaid-1618061284838 g.classGroup text{fill:#9370DB;fill:#131300;stroke:none;font-family:"trebuchet ms",verdana,arial,sans-serif;font-size:10px;}#mermaid-1618061284838 g.classGroup text .title{font-weight:bolder;}#mermaid-1618061284838 .classTitle{font-weight:bolder;}#mermaid-1618061284838 .node rect,#mermaid-1618061284838 .node circle,#mermaid-1618061284838 .node ellipse,#mermaid-1618061284838 .node polygon,#mermaid-1618061284838 .node path{fill:#ECECFF;stroke:#9370DB;stroke-width:1px;}#mermaid-1618061284838 .divider{stroke:#9370DB;stroke:1;}#mermaid-1618061284838 g.clickable{cursor:pointer;}#mermaid-1618061284838 g.classGroup rect{fill:#ECECFF;stroke:#9370DB;}#mermaid-1618061284838 g.classGroup line{stroke:#9370DB;stroke-width:1;}#mermaid-1618061284838 .classLabel .box{stroke:none;stroke-width:0;fill:#ECECFF;opacity:0.5;}#mermaid-1618061284838 .classLabel .label{fill:#9370DB;font-size:10px;}#mermaid-1618061284838 .relation{stroke:#333333;stroke-width:1;fill:none;}#mermaid-1618061284838 .dashed-line{stroke-dasharray:3;}#mermaid-1618061284838 #compositionStart,#mermaid-1618061284838 .composition{fill:#333333 !important;stroke:#333333 !important;stroke-width:1;}#mermaid-1618061284838 #compositionEnd,#mermaid-1618061284838 .composition{fill:#333333 !important;stroke:#333333 !important;stroke-width:1;}#mermaid-1618061284838 #dependencyStart,#mermaid-1618061284838 .dependency{fill:#333333 !important;stroke:#333333 !important;stroke-width:1;}#mermaid-1618061284838 #dependencyStart,#mermaid-1618061284838 .dependency{fill:#333333 !important;stroke:#333333 !important;stroke-width:1;}#mermaid-1618061284838 #extensionStart,#mermaid-1618061284838 .extension{fill:#333333 !important;stroke:#333333 !important;stroke-width:1;}#mermaid-1618061284838 #extensionEnd,#mermaid-1618061284838 .extension{fill:#333333 !important;stroke:#333333 !important;stroke-width:1;}#mermaid-1618061284838 #aggregationStart,#mermaid-1618061284838 .aggregation{fill:#ECECFF !important;stroke:#333333 !important;stroke-width:1;}#mermaid-1618061284838 #aggregationEnd,#mermaid-1618061284838 .aggregation{fill:#ECECFF !important;stroke:#333333 !important;stroke-width:1;}#mermaid-1618061284838 .edgeTerminals{font-size:11px;}#mermaid-1618061284838:root{--mermaid-font-family:"trebuchet ms",verdana,arial,sans-serif;}#mermaid-1618061284838 class{fill:apa;}</style><g></g><defs><marker id="extensionStart" class="extension" refX="0" refY="7" markerWidth="190" markerHeight="240" orient="auto"><path d="M 1,7 L18,13 V 1 Z"></path></marker></defs><defs><marker id="extensionEnd" refX="19" refY="7" markerWidth="20" markerHeight="28" orient="auto"><path d="M 1,1 V 13 L18,7 Z"></path></marker></defs><defs><marker id="compositionStart" class="extension" refX="0" refY="7" markerWidth="190" markerHeight="240" orient="auto"><path d="M 18,7 L9,13 L1,7 L9,1 Z"></path></marker></defs><defs><marker id="compositionEnd" refX="19" refY="7" markerWidth="20" markerHeight="28" orient="auto"><path d="M 18,7 L9,13 L1,7 L9,1 Z"></path></marker></defs><defs><marker id="aggregationStart" class="extension" refX="0" refY="7" markerWidth="190" markerHeight="240" orient="auto"><path d="M 18,7 L9,13 L1,7 L9,1 Z"></path></marker></defs><defs><marker id="aggregationEnd" refX="19" refY="7" markerWidth="20" markerHeight="28" orient="auto"><path d="M 18,7 L9,13 L1,7 L9,1 Z"></path></marker></defs><defs><marker id="dependencyStart" class="extension" refX="0" refY="7" markerWidth="190" markerHeight="240" orient="auto"><path d="M 5,7 L9,13 L1,7 L9,1 Z"></path></marker></defs><defs><marker id="dependencyEnd" refX="19" refY="7" markerWidth="20" markerHeight="28" orient="auto"><path d="M 18,7 L9,13 L14,7 L9,1 Z"></path></marker></defs><g id="classid-goker-0" class="classGroup" transform="translate(222.328125,0 )"><rect x="0" y="0" width="110.59375" height="47.15625" class=" "></rect><text y="15" x="0"><tspan class="title" x="42.203125">goker</tspan></text><line x1="0" y1="21.0625" y2="21.0625" x2="110.59375"></line><text x="5" y="31.0625" fill="white" class="classText"></text><line x1="0" y1="26.0625" y2="26.0625" x2="110.59375"></line><text x="5" y="41.0625" fill="white" class="classText"><tspan x="5" style="text-decoration:underline;">+OpenTable() : Table</tspan></text></g><g id="classid-Table-1" class="classGroup" transform="translate(198.40625,97.15625 )"><rect x="0" y="0" width="158.4375" height="118.09375" class=" "></rect><text y="15" x="0"><tspan class="title" x="66.234375">Table</tspan></text><line x1="0" y1="21" y2="21" x2="158.4375"></line><text x="5" y="31" fill="white" class="classText"><tspan x="5">-string uuid</tspan><tspan x="5" dy="10">-List&lt;Player&gt; players</tspan><tspan x="5" dy="10">-Pot pot</tspan><tspan x="5" dy="10">-Dealer dealer</tspan></text><line x1="0" y1="67" y2="67" x2="158.4375"></line><text x="5" y="82" fill="white" class="classText"><tspan x="5">+UUID() : string</tspan><tspan x="5" dy="10">+PlayerJoin(playerUuid string)</tspan><tspan x="5" dy="10">+PlayerLeave(playerUuid string)</tspan><tspan x="5" dy="10">+Close()</tspan></text></g><g id="classid-Player-2" class="classGroup" transform="translate(0,265.25 )"><rect x="0" y="0" width="146.640625" height="128.15625" class=" "></rect><text y="15" x="0"><tspan class="title" x="58.5625">Player</tspan></text><line x1="0" y1="21.0625" y2="21.0625" x2="146.640625"></line><text x="5" y="31.0625" fill="white" class="classText"><tspan x="5">-string uuid</tspan><tspan x="5" dy="10">-int stack</tspan><tspan x="5" dy="10">-Array&lt;Card&gt; holdCards</tspan><tspan x="5" dy="10">-int currentBet</tspan></text><line x1="0" y1="67.0625" y2="67.0625" x2="146.640625"></line><text x="5" y="82.0625" fill="white" class="classText"><tspan x="5">+UUID() : string</tspan><tspan x="5" dy="10">+Stack() : int</tspan><tspan x="5" dy="10">+HoldCards() : Array&lt;Card&gt;</tspan><tspan x="5" dy="10">+Bet(chips int) : error</tspan><tspan x="5" dy="10">+FinishHand(earnedChips int)</tspan></text></g><g id="classid-Pot-3" class="classGroup" transform="translate(196.640625,270.25 )"><rect x="0" y="0" width="161.96875" height="118.15625" class=" "></rect><text y="15" x="0"><tspan class="title" x="73.234375">Pot</tspan></text><line x1="0" y1="21" y2="21" x2="161.96875"></line><text x="5" y="31" fill="white" class="classText"><tspan x="5">-int value</tspan><tspan x="5" dy="10">-List&lt;*Player&gt; eligiblePlayers</tspan></text><line x1="0" y1="47.0625" y2="47.0625" x2="161.96875"></line><text x="5" y="62.0625" fill="white" class="classText"><tspan x="5">~collectChips()</tspan><tspan x="5" dy="10">~rewardChips(*Player player)</tspan><tspan x="5" dy="10">+Value() : int</tspan><tspan x="5" dy="10">+EligiblePlayers() : Array&lt;string&gt;</tspan><tspan x="5" dy="10">+PlayerBets() : Map&lt;string_int&gt;</tspan><tspan x="5" dy="10">+SidePots() : Array&lt;SidePot&gt;</tspan></text></g><g id="classid-Dealer-4" class="classGroup" transform="translate(408.609375,308.828125 )"><rect x="0" y="0" width="64.296875" height="41" class=" "></rect><text y="15" x="0"><tspan class="title" x="16.9140625">Dealer</tspan></text><line x1="0" y1="21" y2="21" x2="64.296875"></line><text x="5" y="31" fill="white" class="classText"><tspan x="5">-Deck deck</tspan></text><line x1="0" y1="37" y2="37" x2="64.296875"></line><text x="5" y="52" fill="white" class="classText"></text></g><g id="classid-SidePot-5" class="classGroup" transform="translate(255.046875,467.484375 )"><rect x="0" y="0" width="45.15625" height="30" class=" "></rect><text y="15" x="0"><tspan class="title" x="5">SidePot</tspan></text><line x1="0" y1="21" y2="21" x2="45.15625"></line><text x="5" y="31" fill="white" class="classText"></text><line x1="0" y1="26" y2="26" x2="45.15625"></line><text x="5" y="41" fill="white" class="classText"></text></g><g id="classid-Deck-6" class="classGroup" transform="translate(359.0859375,443.40625 )"><rect x="0" y="0" width="163.34375" height="78.15625" class=" "></rect><text y="15" x="0"><tspan class="title" x="70.28125">Deck</tspan></text><line x1="0" y1="21" y2="21" x2="163.34375"></line><text x="5" y="31" fill="white" class="classText"><tspan x="5">-dealtCards List</tspan><tspan x="5" dy="10">-remainingCards List</tspan></text><line x1="0" y1="47.0625" y2="47.0625" x2="163.34375"></line><text x="5" y="62.0625" fill="white" class="classText"><tspan x="5">+DealtCards() : List&lt;Card&gt;</tspan><tspan x="5" dy="10">+Deal(cardsNum int) : List&lt;Card&gt;</tspan></text></g><g id="classid-Card-7" class="classGroup" transform="translate(400.53125,571.5625 )"><rect x="0" y="0" width="80.453125" height="78.09375" class=" "></rect><text y="15" x="0"><tspan class="title" x="29.4609375">Card</tspan></text><line x1="0" y1="21" y2="21" x2="80.453125"></line><text x="5" y="31" fill="white" class="classText"><tspan x="5">-Rank rank</tspan><tspan x="5" dy="10">-Suit suit</tspan></text><line x1="0" y1="47" y2="47" x2="80.453125"></line><text x="5" y="62" fill="white" class="classText"><tspan x="5">+Rank() : Rank</tspan><tspan x="5" dy="10">+Suit() : Suit</tspan></text></g><path d="M277.625,47.15625L277.625,51.322916666666664C277.625,55.489583333333336,277.625,63.822916666666664,277.625,72.15625C277.625,80.48958333333333,277.625,88.82291666666667,277.625,92.98958333333333L277.625,97.15625" id="edge0" class="relation dashed-line" marker-end="url(#dependencyEnd)"></path><path d="M198.40625,188.7921392824366L177.55859375,197.3684494020305C156.7109375,205.9447595216244,115.015625,223.09737976081223,94.16796875,235.8403565470728C73.3203125,248.58333333333334,73.3203125,256.9166666666667,73.3203125,261.0833333333333L73.3203125,265.25" id="edge1" class="relation dashed-line" marker-end="url(#dependencyEnd)"></path><path d="M277.625,215.25L277.625,219.41666666666666C277.625,223.58333333333334,277.625,231.91666666666666,277.625,241.08333333333334C277.625,250.25,277.625,260.25,277.625,265.25L277.625,270.25" id="edge2" class="relation dashed-line" marker-end="url(#dependencyEnd)"></path><path d="M356.84375,197.01703776758777L370.8294270833333,204.2225314729898C384.8151041666667,211.42802517839186,412.7864583333333,225.83901258919593,426.7721354166667,244.47419379459794C440.7578125,263.109375,440.7578125,285.96875,440.7578125,297.3984375L440.7578125,308.828125" id="edge3" class="relation dashed-line" marker-end="url(#dependencyEnd)"></path><path d="M277.625,388.40625L277.625,393.40625C277.625,398.40625,277.625,408.40625,277.625,421.5859375C277.625,434.765625,277.625,451.125,277.625,459.3046875L277.625,467.484375" id="edge4" class="relation dashed-line" marker-end="url(#dependencyEnd)"></path><path d="M440.7578125,349.828125L440.7578125,361.2578125C440.7578125,372.6875,440.7578125,395.546875,440.7578125,411.1432291666667C440.7578125,426.7395833333333,440.7578125,435.0729166666667,440.7578125,439.2395833333333L440.7578125,443.40625" id="edge5" class="relation dashed-line" marker-end="url(#dependencyEnd)"></path><path d="M440.7578125,521.5625L440.7578125,525.7291666666666C440.7578125,529.8958333333334,440.7578125,538.2291666666666,440.7578125,546.5625C440.7578125,554.8958333333334,440.7578125,563.2291666666666,440.7578125,567.3958333333334L440.7578125,571.5625" id="edge6" class="relation dashed-line" marker-end="url(#dependencyEnd)"></path></svg>