<svg id="mermaid-1618058451526" width="100%" xmlns="http://www.w3.org/2000/svg" xmlns:xlink="http://www.w3.org/1999/xlink" height="361.28125" style="max-width: 524.015625px;" viewBox="-20 -20 524.015625 361.28125"><style>#mermaid-1618058451526{font-family:"trebuchet ms",verdana,arial,sans-serif;font-size:16px;fill:#333;}#mermaid-1618058451526 .error-icon{fill:#552222;}#mermaid-1618058451526 .error-text{fill:#552222;stroke:#552222;}#mermaid-1618058451526 .edge-thickness-normal{stroke-width:2px;}#mermaid-1618058451526 .edge-thickness-thick{stroke-width:3.5px;}#mermaid-1618058451526 .edge-pattern-solid{stroke-dasharray:0;}#mermaid-1618058451526 .edge-pattern-dashed{stroke-dasharray:3;}#mermaid-1618058451526 .edge-pattern-dotted{stroke-dasharray:2;}#mermaid-1618058451526 .marker{fill:#333333;stroke:#333333;}#mermaid-1618058451526 .marker.cross{stroke:#333333;}#mermaid-1618058451526 svg{font-family:"trebuchet ms",verdana,arial,sans-serif;font-size:16px;}#mermaid-1618058451526 g.classGroup text{fill:#9370DB;fill:#131300;stroke:none;font-family:"trebuchet ms",verdana,arial,sans-serif;font-size:10px;}#mermaid-1618058451526 g.classGroup text .title{font-weight:bolder;}#mermaid-1618058451526 .classTitle{font-weight:bolder;}#mermaid-1618058451526 .node rect,#mermaid-1618058451526 .node circle,#mermaid-1618058451526 .node ellipse,#mermaid-1618058451526 .node polygon,#mermaid-1618058451526 .node path{fill:#ECECFF;stroke:#9370DB;stroke-width:1px;}#mermaid-1618058451526 .divider{stroke:#9370DB;stroke:1;}#mermaid-1618058451526 g.clickable{cursor:pointer;}#mermaid-1618058451526 g.classGroup rect{fill:#ECECFF;stroke:#9370DB;}#mermaid-1618058451526 g.classGroup line{stroke:#9370DB;stroke-width:1;}#mermaid-1618058451526 .classLabel .box{stroke:none;stroke-width:0;fill:#ECECFF;opacity:0.5;}#mermaid-1618058451526 .classLabel .label{fill:#9370DB;font-size:10px;}#mermaid-1618058451526 .relation{stroke:#333333;stroke-width:1;fill:none;}#mermaid-1618058451526 .dashed-line{stroke-dasharray:3;}#mermaid-1618058451526 #compositionStart,#mermaid-1618058451526 .composition{fill:#333333 !important;stroke:#333333 !important;stroke-width:1;}#mermaid-1618058451526 #compositionEnd,#mermaid-1618058451526 .composition{fill:#333333 !important;stroke:#333333 !important;stroke-width:1;}#mermaid-1618058451526 #dependencyStart,#mermaid-1618058451526 .dependency{fill:#333333 !important;stroke:#333333 !important;stroke-width:1;}#mermaid-1618058451526 #dependencyStart,#mermaid-1618058451526 .dependency{fill:#333333 !important;stroke:#333333 !important;stroke-width:1;}#mermaid-1618058451526 #extensionStart,#mermaid-1618058451526 .extension{fill:#333333 !important;stroke:#333333 !important;stroke-width:1;}#mermaid-1618058451526 #extensionEnd,#mermaid-1618058451526 .extension{fill:#333333 !important;stroke:#333333 !important;stroke-width:1;}#mermaid-1618058451526 #aggregationStart,#mermaid-1618058451526 .aggregation{fill:#ECECFF !important;stroke:#333333 !important;stroke-width:1;}#mermaid-1618058451526 #aggregationEnd,#mermaid-1618058451526 .aggregation{fill:#ECECFF !important;stroke:#333333 !important;stroke-width:1;}#mermaid-1618058451526 .edgeTerminals{font-size:11px;}#mermaid-1618058451526:root{--mermaid-font-family:"trebuchet ms",verdana,arial,sans-serif;}#mermaid-1618058451526 class{fill:apa;}</style><g></g><defs><marker id="extensionStart" class="extension" refX="0" refY="7" markerWidth="190" markerHeight="240" orient="auto"><path d="M 1,7 L18,13 V 1 Z"></path></marker></defs><defs><marker id="extensionEnd" refX="19" refY="7" markerWidth="20" markerHeight="28" orient="auto"><path d="M 1,1 V 13 L18,7 Z"></path></marker></defs><defs><marker id="compositionStart" class="extension" refX="0" refY="7" markerWidth="190" markerHeight="240" orient="auto"><path d="M 18,7 L9,13 L1,7 L9,1 Z"></path></marker></defs><defs><marker id="compositionEnd" refX="19" refY="7" markerWidth="20" markerHeight="28" orient="auto"><path d="M 18,7 L9,13 L1,7 L9,1 Z"></path></marker></defs><defs><marker id="aggregationStart" class="extension" refX="0" refY="7" markerWidth="190" markerHeight="240" orient="auto"><path d="M 18,7 L9,13 L1,7 L9,1 Z"></path></marker></defs><defs><marker id="aggregationEnd" refX="19" refY="7" markerWidth="20" markerHeight="28" orient="auto"><path d="M 18,7 L9,13 L1,7 L9,1 Z"></path></marker></defs><defs><marker id="dependencyStart" class="extension" refX="0" refY="7" markerWidth="190" markerHeight="240" orient="auto"><path d="M 5,7 L9,13 L1,7 L9,1 Z"></path></marker></defs><defs><marker id="dependencyEnd" refX="19" refY="7" markerWidth="20" markerHeight="28" orient="auto"><path d="M 18,7 L9,13 L14,7 L9,1 Z"></path></marker></defs><g id="classid-Table-0" class="classGroup" transform="translate(200.1953125,0 )"><rect x="0" y="0" width="106.640625" height="67.09375" class=" "></rect><text y="15" x="0"><tspan class="title" x="40.3359375">Table</tspan></text><line x1="0" y1="21" y2="21" x2="106.640625"></line><text x="5" y="31" fill="white" class="classText"></text><line x1="0" y1="26" y2="26" x2="106.640625"></line><text x="5" y="41" fill="white" class="classText"><tspan x="5" style="text-decoration:underline;">+NewTable() : Table</tspan><tspan x="5" dy="10">+UUID() : string</tspan><tspan x="5" dy="10">+Close()</tspan></text></g><g id="classid-Pot-1" class="classGroup" transform="translate(0,117.09375 )"><rect x="0" y="0" width="183.28125" height="97.09375" class=" "></rect><text y="15" x="0"><tspan class="title" x="83.890625">Pot</tspan></text><line x1="0" y1="21" y2="21" x2="183.28125"></line><text x="5" y="31" fill="white" class="classText"></text><line x1="0" y1="26" y2="26" x2="183.28125"></line><text x="5" y="41" fill="white" class="classText"><tspan x="5">~bet(string playerUuid, int chips)</tspan><tspan x="5" dy="10">~collectChips(Array&lt;*Player&gt; players)</tspan><tspan x="5" dy="10">~rewardChips(*Player player)</tspan><tspan x="5" dy="10">+Value() : int</tspan><tspan x="5" dy="10">+PlayerBets() : Map&lt;string_int&gt;</tspan><tspan x="5" dy="10">+SidePots() : Array&lt;SidePot&gt;</tspan></text></g><g id="classid-Dealer-2" class="classGroup" transform="translate(233.28125,150.640625 )"><rect x="0" y="0" width="40.46875" height="30" class=" "></rect><text y="15" x="0"><tspan class="title" x="5">Dealer</tspan></text><line x1="0" y1="21" y2="21" x2="40.46875"></line><text x="5" y="31" fill="white" class="classText"></text><line x1="0" y1="26" y2="26" x2="40.46875"></line><text x="5" y="41" fill="white" class="classText"></text></g><g id="classid-Player-3" class="classGroup" transform="translate(323.75,122.0625 )"><rect x="0" y="0" width="160.265625" height="87.15625" class=" "></rect><text y="15" x="0"><tspan class="title" x="65.375">Player</tspan></text><line x1="0" y1="21.0625" y2="21.0625" x2="160.265625"></line><text x="5" y="31.0625" fill="white" class="classText"></text><line x1="0" y1="26.0625" y2="26.0625" x2="160.265625"></line><text x="5" y="41.0625" fill="white" class="classText"><tspan x="5" style="text-decoration:underline;">+NewPlayer(string uuid) : Player</tspan><tspan x="5" dy="10">+UUID() : string</tspan><tspan x="5" dy="10">+JoinTable(*Table table)</tspan><tspan x="5" dy="10">+Stack() : int</tspan><tspan x="5" dy="10">+LeaveTable()</tspan></text></g><g id="classid-SidePot-4" class="classGroup" transform="translate(10.65625,264.1875 )"><rect x="0" y="0" width="161.96875" height="57.09375" class=" "></rect><text y="15" x="0"><tspan class="title" x="63.40625">SidePot</tspan></text><line x1="0" y1="21" y2="21" x2="161.96875"></line><text x="5" y="31" fill="white" class="classText"></text><line x1="0" y1="26" y2="26" x2="161.96875"></line><text x="5" y="41" fill="white" class="classText"><tspan x="5">+EligiblePlayers() : Array&lt;string&gt;</tspan><tspan x="5" dy="10">+Value() : int</tspan></text></g><path d="M200.1953125,52.83174092060811L182.10286458333334,59.375409100506765C164.01041666666666,65.9190772804054,127.82552083333333,79.00641364020271,109.73307291666667,89.71674848676803C91.640625,100.42708333333333,91.640625,108.76041666666667,91.640625,112.92708333333333L91.640625,117.09375" id="edge0" class="relation dashed-line" marker-end="url(#dependencyEnd)"></path><path d="M253.515625,67.09375L253.515625,71.26041666666667C253.515625,75.42708333333333,253.515625,83.76041666666667,253.515625,97.68489583333333C253.515625,111.609375,253.515625,131.125,253.515625,140.8828125L253.515625,150.640625" id="edge1" class="relation dashed-line" marker-end="url(#dependencyEnd)"></path><path d="M306.8359375,54.307638852808225L323.0104166666667,60.605324044006856C339.1848958333333,66.90300923520549,371.5338541666667,79.49837961760274,387.7083333333333,90.79085647546803C403.8828125,102.08333333333333,403.8828125,112.07291666666667,403.8828125,117.06770833333333L403.8828125,122.0625" id="edge2" class="relation dashed-line" marker-end="url(#dependencyEnd)"></path><path d="M91.640625,214.1875L91.640625,218.35416666666666C91.640625,222.52083333333334,91.640625,230.85416666666666,91.640625,239.1875C91.640625,247.52083333333334,91.640625,255.85416666666666,91.640625,260.0208333333333L91.640625,264.1875" id="edge3" class="relation dashed-line" marker-end="url(#dependencyEnd)"></path></svg>