<svg id="mermaid-1618091279299" width="100%" xmlns="http://www.w3.org/2000/svg" xmlns:xlink="http://www.w3.org/1999/xlink" height="720.78125" style="max-width: 715.19921875px;" viewBox="-20 -20 715.19921875 720.78125"><style>#mermaid-1618091279299{font-family:"trebuchet ms",verdana,arial,sans-serif;font-size:16px;fill:#333;}#mermaid-1618091279299 .error-icon{fill:#552222;}#mermaid-1618091279299 .error-text{fill:#552222;stroke:#552222;}#mermaid-1618091279299 .edge-thickness-normal{stroke-width:2px;}#mermaid-1618091279299 .edge-thickness-thick{stroke-width:3.5px;}#mermaid-1618091279299 .edge-pattern-solid{stroke-dasharray:0;}#mermaid-1618091279299 .edge-pattern-dashed{stroke-dasharray:3;}#mermaid-1618091279299 .edge-pattern-dotted{stroke-dasharray:2;}#mermaid-1618091279299 .marker{fill:#333333;stroke:#333333;}#mermaid-1618091279299 .marker.cross{stroke:#333333;}#mermaid-1618091279299 svg{font-family:"trebuchet ms",verdana,arial,sans-serif;font-size:16px;}#mermaid-1618091279299 g.classGroup text{fill:#9370DB;fill:#131300;stroke:none;font-family:"trebuchet ms",verdana,arial,sans-serif;font-size:10px;}#mermaid-1618091279299 g.classGroup text .title{font-weight:bolder;}#mermaid-1618091279299 .classTitle{font-weight:bolder;}#mermaid-1618091279299 .node rect,#mermaid-1618091279299 .node circle,#mermaid-1618091279299 .node ellipse,#mermaid-1618091279299 .node polygon,#mermaid-1618091279299 .node path{fill:#ECECFF;stroke:#9370DB;stroke-width:1px;}#mermaid-1618091279299 .divider{stroke:#9370DB;stroke:1;}#mermaid-1618091279299 g.clickable{cursor:pointer;}#mermaid-1618091279299 g.classGroup rect{fill:#ECECFF;stroke:#9370DB;}#mermaid-1618091279299 g.classGroup line{stroke:#9370DB;stroke-width:1;}#mermaid-1618091279299 .classLabel .box{stroke:none;stroke-width:0;fill:#ECECFF;opacity:0.5;}#mermaid-1618091279299 .classLabel .label{fill:#9370DB;font-size:10px;}#mermaid-1618091279299 .relation{stroke:#333333;stroke-width:1;fill:none;}#mermaid-1618091279299 .dashed-line{stroke-dasharray:3;}#mermaid-1618091279299 #compositionStart,#mermaid-1618091279299 .composition{fill:#333333 !important;stroke:#333333 !important;stroke-width:1;}#mermaid-1618091279299 #compositionEnd,#mermaid-1618091279299 .composition{fill:#333333 !important;stroke:#333333 !important;stroke-width:1;}#mermaid-1618091279299 #dependencyStart,#mermaid-1618091279299 .dependency{fill:#333333 !important;stroke:#333333 !important;stroke-width:1;}#mermaid-1618091279299 #dependencyStart,#mermaid-1618091279299 .dependency{fill:#333333 !important;stroke:#333333 !important;stroke-width:1;}#mermaid-1618091279299 #extensionStart,#mermaid-1618091279299 .extension{fill:#333333 !important;stroke:#333333 !important;stroke-width:1;}#mermaid-1618091279299 #extensionEnd,#mermaid-1618091279299 .extension{fill:#333333 !important;stroke:#333333 !important;stroke-width:1;}#mermaid-1618091279299 #aggregationStart,#mermaid-1618091279299 .aggregation{fill:#ECECFF !important;stroke:#333333 !important;stroke-width:1;}#mermaid-1618091279299 #aggregationEnd,#mermaid-1618091279299 .aggregation{fill:#ECECFF !important;stroke:#333333 !important;stroke-width:1;}#mermaid-1618091279299 .edgeTerminals{font-size:11px;}#mermaid-1618091279299:root{--mermaid-font-family:"trebuchet ms",verdana,arial,sans-serif;}#mermaid-1618091279299 class{fill:apa;}</style><g></g><defs><marker id="extensionStart" class="extension" refX="0" refY="7" markerWidth="190" markerHeight="240" orient="auto"><path d="M 1,7 L18,13 V 1 Z"></path></marker></defs><defs><marker id="extensionEnd" refX="19" refY="7" markerWidth="20" markerHeight="28" orient="auto"><path d="M 1,1 V 13 L18,7 Z"></path></marker></defs><defs><marker id="compositionStart" class="extension" refX="0" refY="7" markerWidth="190" markerHeight="240" orient="auto"><path d="M 18,7 L9,13 L1,7 L9,1 Z"></path></marker></defs><defs><marker id="compositionEnd" refX="19" refY="7" markerWidth="20" markerHeight="28" orient="auto"><path d="M 18,7 L9,13 L1,7 L9,1 Z"></path></marker></defs><defs><marker id="aggregationStart" class="extension" refX="0" refY="7" markerWidth="190" markerHeight="240" orient="auto"><path d="M 18,7 L9,13 L1,7 L9,1 Z"></path></marker></defs><defs><marker id="aggregationEnd" refX="19" refY="7" markerWidth="20" markerHeight="28" orient="auto"><path d="M 18,7 L9,13 L1,7 L9,1 Z"></path></marker></defs><defs><marker id="dependencyStart" class="extension" refX="0" refY="7" markerWidth="190" markerHeight="240" orient="auto"><path d="M 5,7 L9,13 L1,7 L9,1 Z"></path></marker></defs><defs><marker id="dependencyEnd" refX="19" refY="7" markerWidth="20" markerHeight="28" orient="auto"><path d="M 18,7 L9,13 L14,7 L9,1 Z"></path></marker></defs><g id="classid-Table-0" class="classGroup" transform="translate(352.046875,138.21875 )"><rect x="0" y="0" width="108.25" height="108.15625" class=" "></rect><text y="15" x="0"><tspan x="29.1328125">«concrete»</tspan><tspan class="title" dy="10" x="41.140625">Table</tspan></text><line x1="0" y1="31" y2="31" x2="108.25"></line><text x="5" y="41" fill="white" class="classText"><tspan x="5">-string uuid</tspan><tspan x="5" dy="10">-Dealer dealer</tspan><tspan x="5" dy="10">-List&lt;Player&gt; players</tspan></text><line x1="0" y1="67.0625" y2="67.0625" x2="108.25"></line><text x="5" y="82.0625" fill="white" class="classText"><tspan x="5">PlayerJoin(string)</tspan><tspan x="5" dy="10">PlayerLeave(string)</tspan><tspan x="5" dy="10">Close() : error</tspan></text></g><g id="classid-Identifiable-1" class="classGroup" transform="translate(167.34375,321.90625 )"><rect x="0" y="0" width="111.09375" height="57.09375" class=" "></rect><text y="15" x="0"><tspan x="31.8515625">«abstract»</tspan><tspan class="title" dy="10" x="28.6875">Identifiable</tspan></text><line x1="0" y1="31" y2="31" x2="111.09375"></line><text x="5" y="41" fill="white" class="classText"></text><line x1="0" y1="36" y2="36" x2="111.09375"></line><text x="5" y="51" fill="white" class="classText"><tspan x="5">UUID() : string</tspan></text></g><g id="classid-Hand-2" class="classGroup" transform="translate(271.796875,465.0625 )"><rect x="0" y="0" width="103.28125" height="67.09375" class=" "></rect><text y="15" x="0"><tspan x="27.9453125">«abstract»</tspan><tspan class="title" dy="10" x="39.703125">Hand</tspan></text><line x1="0" y1="31" y2="31" x2="103.28125"></line><text x="5" y="41" fill="white" class="classText"></text><line x1="0" y1="36" y2="36" x2="103.28125"></line><text x="5" y="51" fill="white" class="classText"><tspan x="5">NewHand() : error</tspan><tspan x="5" dy="10">FinishHand() : error</tspan></text></g><g id="classid-Player-3" class="classGroup" transform="translate(6.5078125,143.21875 )"><rect x="0" y="0" width="124.328125" height="98.15625" class=" "></rect><text y="15" x="0"><tspan x="37.171875">«concrete»</tspan><tspan class="title" dy="10" x="47.40625">Player</tspan></text><line x1="0" y1="31.0625" y2="31.0625" x2="124.328125"></line><text x="5" y="41.0625" fill="white" class="classText"><tspan x="5">-string uuid</tspan><tspan x="5" dy="10">-int stack</tspan><tspan x="5" dy="10">-List&lt;Card&gt; holdCards</tspan></text><line x1="0" y1="67.0625" y2="67.0625" x2="124.328125"></line><text x="5" y="82.0625" fill="white" class="classText"><tspan x="5">Stack() : int</tspan><tspan x="5" dy="10">HoldCards() : List&lt;Card&gt;</tspan></text></g><g id="classid-Gambler-4" class="classGroup" transform="translate(0,311.90625 )"><rect x="0" y="0" width="117.34375" height="77.09375" class=" "></rect><text y="15" x="0"><tspan x="34.9765625">«abstract»</tspan><tspan class="title" dy="10" x="38.9609375">Gambler</tspan></text><line x1="0" y1="31" y2="31" x2="117.34375"></line><text x="5" y="41" fill="white" class="classText"></text><line x1="0" y1="36" y2="36" x2="117.34375"></line><text x="5" y="51" fill="white" class="classText"><tspan x="5">BetBlind(string) : error</tspan><tspan x="5" dy="10">Bet(int) : error</tspan><tspan x="5" dy="10">Earn(int)</tspan></text></g><g id="classid-Dealer-5" class="classGroup" transform="translate(401.05859375,324.953125 )"><rect x="0" y="0" width="90.453125" height="51" class=" "></rect><text y="15" x="0"><tspan x="20.234375">«concrete»</tspan><tspan class="title" dy="10" x="29.984375">Dealer</tspan></text><line x1="0" y1="31" y2="31" x2="90.453125"></line><text x="5" y="41" fill="white" class="classText"><tspan x="5">-Deck deck</tspan></text><line x1="0" y1="47" y2="47" x2="90.453125"></line><text x="5" y="62" fill="white" class="classText"></text></g><g id="classid-GamePlay-6" class="classGroup" transform="translate(224.6640625,0 )"><rect x="0" y="0" width="108.25" height="88.21875" class=" "></rect><text y="15" x="0"><tspan x="29.1328125">«concrete»</tspan><tspan class="title" dy="10" x="31.1875">GamePlay</tspan></text><line x1="0" y1="31.0625" y2="31.0625" x2="108.25"></line><text x="5" y="41.0625" fill="white" class="classText"><tspan x="5">-List&lt;Table&gt; tables</tspan><tspan x="5" dy="10">-List&lt;Player&gt; players</tspan></text><line x1="0" y1="57.125" y2="57.125" x2="108.25"></line><text x="5" y="72.125" fill="white" class="classText"><tspan x="5" style="text-decoration:underline;">OpenTable() : Table</tspan><tspan x="5" style="text-decoration:underline;" dy="10">NewPlayer() : Player</tspan></text></g><g id="classid-Deck-7" class="classGroup" transform="translate(425.078125,454.53125 )"><rect x="0" y="0" width="127.65625" height="88.15625" class=" "></rect><text y="15" x="0"><tspan x="38.8359375">«concrete»</tspan><tspan class="title" dy="10" x="52.4375">Deck</tspan></text><line x1="0" y1="31" y2="31" x2="127.65625"></line><text x="5" y="41" fill="white" class="classText"><tspan x="5">-dealtCards List</tspan><tspan x="5" dy="10">-remainingCards List</tspan></text><line x1="0" y1="57.0625" y2="57.0625" x2="127.65625"></line><text x="5" y="72.0625" fill="white" class="classText"><tspan x="5">DealtCards() : List&lt;Card&gt;</tspan><tspan x="5" dy="10">Deal(int) : List&lt;Card&gt;</tspan></text></g><g id="classid-Card-8" class="classGroup" transform="translate(448.1484375,592.6875 )"><rect x="0" y="0" width="81.515625" height="88.09375" class=" "></rect><text y="15" x="0"><tspan x="15.765625">«concrete»</tspan><tspan class="title" dy="10" x="29.984375">Card</tspan></text><line x1="0" y1="31" y2="31" x2="81.515625"></line><text x="5" y="41" fill="white" class="classText"><tspan x="5">-Rank rank</tspan><tspan x="5" dy="10">-Suit suit</tspan></text><line x1="0" y1="57" y2="57" x2="81.515625"></line><text x="5" y="72" fill="white" class="classText"><tspan x="5">Rank() : Rank</tspan><tspan x="5" dy="10">Suit() : Suit</tspan></text></g><g id="classid-Pot-9" class="classGroup" transform="translate(541.51171875,296.375 )"><rect x="0" y="0" width="133.6875" height="108.15625" class=" "></rect><text y="15" x="0"><tspan x="41.8515625">«concrete»</tspan><tspan class="title" dy="10" x="59.09375">Pot</tspan></text><line x1="0" y1="31" y2="31" x2="133.6875"></line><text x="5" y="41" fill="white" class="classText"><tspan x="5">-int value</tspan><tspan x="5" dy="10">-List&lt;Gambler&gt; eligibles</tspan></text><line x1="0" y1="57.0625" y2="57.0625" x2="133.6875"></line><text x="5" y="72.0625" fill="white" class="classText"><tspan x="5">Value() : int</tspan><tspan x="5" dy="10">Eligibles() : List&lt;Gambler&gt;</tspan><tspan x="5" dy="10">CollectChips()</tspan><tspan x="5" dy="10">RewardChips(Gambler)</tspan></text></g><path d="M352.046875,221.21496684481394L336.3997395833333,229.5749723706783C320.7526041666667,237.93497789654262,289.4583333333333,254.65498894827132,270.05455242911484,271.4368694741357C250.65077152489627,288.21875,243.1374805497925,305.0625,239.38083506224066,313.484375L235.62418957468878,321.90625" id="edge0" class="relation" marker-end="url(#extensionEnd)"></path><g class="classLabel"><rect class="box" x="252.015625" y="247.828125" width="57.375" height="16.0625"></rect><text class="label" x="280.70463154548275" y="259.3319469581221" fill="red" text-anchor="middle">implements</text></g><path d="M352.046875,238.45131897641113L345.6119791666667,243.93859914700928C339.1770833333333,249.4258793176074,326.3072916666667,260.4004396588037,319.8723958333333,279.0674073294019C313.4375,297.734375,313.4375,324.09375,313.4375,350.453125C313.4375,376.8125,313.4375,403.171875,314.29477211038227,422.2734375C315.15204422076454,441.375,316.8665884415291,453.21875,317.72386055191134,459.140625L318.5811326622936,465.0625" id="edge1" class="relation" marker-end="url(#extensionEnd)"></path><g class="classLabel"><rect class="box" x="284.75" y="331.53125" width="57.375" height="16.0625"></rect><text class="label" x="313.4375" y="343.03342015351063" fill="red" text-anchor="middle">implements</text></g><path d="M62.4655916567872,241.375L61.83330554732266,246.375C61.20101943785813,251.375,59.93644721892906,261.375,59.30416110946453,273.1302083333333C58.671875,284.8854166666667,58.671875,298.3958333333333,58.671875,305.1510416666667L58.671875,311.90625" id="edge2" class="relation" marker-end="url(#extensionEnd)"></path><g class="classLabel"><rect class="box" x="29.984375" y="265.015625" width="57.375" height="16.0625"></rect><text class="label" x="58.671875" y="276.5211649726711" fill="red" text-anchor="middle">implements</text></g><path d="M119.63127963841137,241.375L124.8229413653428,246.375C130.01460309227426,251.375,140.3979265461371,261.375,153.26928657873938,274.796875C166.14064661134162,288.21875,181.50004322268327,305.0625,189.17974152835407,313.484375L196.8594398340249,321.90625" id="edge3" class="relation" marker-end="url(#extensionEnd)"></path><g class="classLabel"><rect class="box" x="130.5625" y="269.15625" width="57.375" height="16.0625"></rect><text class="label" x="159.2503962992865" y="280.66261634251117" fill="red" text-anchor="middle">implements</text></g><path d="M419.60614024525785,375.953125L410.2635804127149,384.8828125C400.9210205801719,393.8125,382.23590091508595,411.671875,369.45454135538847,426.5234375C356.67318179569105,441.375,349.79558234138204,453.21875,346.35678261422754,459.140625L342.91798288707304,465.0625" id="edge4" class="relation" marker-end="url(#extensionEnd)"></path><g class="classLabel"><rect class="box" x="348.046875" y="405.421875" width="57.375" height="16.078125"></rect><text class="label" x="376.7273912269496" y="416.9369491325134" fill="red" text-anchor="middle">implements</text></g><path d="M224.6640625,61.911559420896076L198.66536458333334,70.46275785074673C172.66666666666666,79.01395628059738,120.66927083333333,96.1163531402987,94.67057291666667,109.66755157014934C68.671875,123.21875,68.671875,133.21875,68.671875,138.21875L68.671875,143.21875" id="edge5" class="relation dashed-line" marker-end="url(#dependencyEnd)"></path><path d="M332.9140625,73.47397174946336L345.1236979166667,80.09810145788613C357.3333333333333,86.72223116630892,381.7526041666667,99.97049058315446,393.9622395833333,110.76128695824389C406.171875,121.55208333333333,406.171875,129.88541666666666,406.171875,134.05208333333334L406.171875,138.21875" id="edge6" class="relation dashed-line" marker-end="url(#dependencyEnd)"></path><path d="M433.60362098029043,246.375L435.7172101919087,250.54166666666666C437.83079940352695,254.70833333333334,442.05797782676353,263.0416666666667,444.17156703838174,276.1380208333333C446.28515625,289.234375,446.28515625,307.09375,446.28515625,316.0234375L446.28515625,324.953125" id="edge7" class="relation dashed-line" marker-end="url(#dependencyEnd)"></path><path d="M460.0290062796384,375.953125L464.841880233032,384.8828125C469.65475418642563,393.8125,479.2805020932128,411.671875,484.0933760466064,424.7682291666667C488.90625,437.8645833333333,488.90625,446.1979166666667,488.90625,450.3645833333333L488.90625,454.53125" id="edge8" class="relation dashed-line" marker-end="url(#dependencyEnd)"></path><path d="M488.90625,542.6875L488.90625,546.8541666666666C488.90625,551.0208333333334,488.90625,559.3541666666666,488.90625,567.6875C488.90625,576.0208333333334,488.90625,584.3541666666666,488.90625,588.5208333333334L488.90625,592.6875" id="edge9" class="relation dashed-line" marker-end="url(#dependencyEnd)"></path><path d="M460.296875,213.4662658305802L484.9733072916667,223.1177215254835C509.6497395833333,232.7691772203868,559.0026041666666,252.0720886101934,583.6790364583334,265.89021097176334C608.35546875,279.7083333333333,608.35546875,288.0416666666667,608.35546875,292.2083333333333L608.35546875,296.375" id="edge10" class="relation dashed-line" marker-end="url(#dependencyEnd)"></path></svg>